#!OML:ASF F:\VICON\USERDATA\INSTALL\rory3\rory3.ASF
:FULLY-SPECIFIED
:DEGREES
90
root 0.5980286490098325 17.733741696909078 43.68659255636627 -3.880671409399671 -4.721955744062589 -2.2483651533781517
lfemur -19.429043085029825 -2.751807026395106 -19.405410054599706
ltibia 31.846382887039404
lfoot -3.8969727483501764 -3.653121203480468
ltoes 0.3223520320919411
rfemur 0.7578517448046505 1.798773859976533 25.069261592810623
rtibia 66.81339849556883
rfoot 17.476735208928808 -1.0347984038795106
rtoes 12.254999495184407
lowerback 9.548597842371537 2.4219539091501585 2.3290642739500855
upperback 0.29621208984254616 3.5454906306139597 0.686443221581574
thorax -4.909240268523891 1.6898944220078866 -0.9633695789766946
lowerneck -15.635450979183712 -3.1377910041055532 -2.0441745174424053
upperneck 20.214863471573526 -4.136328048595855 1.4256291540319874
head 8.960474884003945 -1.95524670593526 0.3062366850768476
lclavicle -4.1616948877510176e-16 -3.882117557043763e-16
lhumerus -38.68471543031343 16.451475580218023 75.89374291458772
lradius 16.169103239666107
lwrist 0.8350324080663931
lhand -29.115862197516932 21.500274159047052
lfingers 7.125020000000058
lthumb -2.4631128534562667 51.45137744548643
rclavicle -4.1616948877510176e-16 -3.882117557043763e-16
rhumerus -25.123160764780895 -16.218210387835846 -80.60537372015692
rradius 32.38418174524378
rwrist 2.7192535397866804
rhand -17.54779574624493 31.22057701086124
rfingers 7.125020000000058
rthumb 8.707243979520792 -6.303512804648397
91
root 0.6064635820378825 17.79397217537738 44.54103621861325 -4.372578208080871 -4.854438651926227 -1.2133461760916948
lfemur -16.370147754665666 -2.861029987940029 -21.056731399273772
ltibia 32.204633366707334
lfoot -6.413553791834646 -2.1591173385096276
ltoes 0.9758897065760488
rfemur -5.246119027723326 0.4352021280522633 23.468821781137787
rtibia 76.51916483509179
rfoot 17.173830307078887 -3.7892162056493586
rtoes 16.22784761242452
lowerback 9.98709183814925 2.2396503212499095 1.3651933742850642
upperback 0.4233842177343187 3.2007410431171435 0.5595275491589838
thorax -5.037432086904293 1.5388186667889046 -0.4804478240581188
lowerneck -15.661898430350895 -2.907672148774137 -2.1135651450649235
upperneck 20.227743637322792 -3.784815083559546 1.3667310680557487
head 8.964276767508705 -1.8003411088902728 0.3353294222063169
lclavicle -3.034897591820377e-16 -3.009635123819742e-16
lhumerus -37.60146397001068 14.863332544572371 76.76282295219657
lradius 17.2580577073512
lwrist 2.4686270313172933
lhand -30.112628424427527 19.944703497204817
lfingers 7.125020000000059
lthumb -3.4257320012789405 49.8946149225759
rclavicle -3.034897591820377e-16 -3.009635123819742e-16
rhumerus -25.827206358764933 -17.159910085509132 -80.34382059327179
rradius 31.427605502934593
rwrist 4.423542416223621
rhand -17.402495460044687 31.1895500183061
rfingers 7.125020000000059
rthumb 8.847545689997931 -6.533223711230891
92
root 0.6106325295978658 17.83924978523877 45.46874489956722 -4.702165472075158 -4.7139502975396095 -0.48779454849398496
lfemur -13.481213997353706 -3.1765966901082145 -22.3733582314678
ltibia 31.726589051854013
lfoot -8.878853896216052 -0.7239585877244963
ltoes 1.1020155072676294
rfemur -11.23851850349356 -0.9586952400274886 22.515793762596886
rtibia 83.18736887981848
rfoot 12.218463787664694 -6.12280349433348
rtoes 16.871458112169265
lowerback 10.312859610071321 1.9058697249940413 0.6106269197342663
upperback 0.5539841101068053 2.6731948916153114 0.5361891842945075
thorax -5.10122839961978 1.2967472042468393 0.0009348075674279199
lowerneck -15.589619754841973 -2.6836369124960076 -2.2338249788759788
upperneck 20.255683350918773 -3.4288111027611716 1.290754668474555
head 8.95516707288002 -1.6486045093075157 0.368943175934387
lclavicle -3.024028423625769e-16 -3.001219061477368e-16
lhumerus -36.162721560375964 12.999514537575243 77.62007246963637
lradius 18.069937247266154
lwrist 3.483105675784426
lhand -30.88738052169828 18.39742576873756
lfingers 7.125020000000059
lthumb -4.173965626658085 48.34869355723775
rclavicle -3.024028423625769e-16 -3.001219061477368e-16
rhumerus -26.375517288683454 -17.959775196131307 -80.24987273249718
rradius 30.516307648855285
rwrist 5.628626961279532
rhand -17.268912768715317 31.049504217915896
rfingers 7.125020000000059
rthumb 8.976425441356003 -6.649685236389117
93
root 0.6088397352766992 17.860677571653852 46.43205343417172 -4.890472008990837 -4.283164104155112 0.001872325289158816
lfemur -10.863427683446194 -3.577510229960942 -23.443089453717775
ltibia 30.927682989012972
lfoot -11.204178364882331 0.41481708830588193
ltoes 0.9488670838916518
rfemur -16.929032714984984 -2.188917413224693 22.05314305610996
rtibia 85.85142873025774
rfoot 5.221316285865797 -7.34518761545909
rtoes 15.019254622999869
lowerback 10.539179572030775 1.446685874678095 -0.004182050853548391
upperback 0.6609506990313814 1.990252670352433 0.5888691322988931
thorax -5.1362368757033865 0.9780503811785111 0.48077242556010735
lowerneck -15.485152320167096 -2.525180003981602 -2.4233800275572364
upperneck 20.268083023357 -3.1568177753215236 1.246960873141364
head 8.93879838538462 -1.536688983454252 0.4167293233985268
lclavicle -4.599844958372745e-16 -4.221378340369729e-16
lhumerus -34.481167825056204 10.759690142922503 78.37719374947972
lradius 18.689043708785803
lwrist 3.883162241438651
lhand -31.203480998389786 17.473859939072646
lfingers 7.125020000000058
lthumb -4.479271056504665 47.429200218913
rclavicle -4.599844958372745e-16 -4.221378340369729e-16
rhumerus -27.07552035291951 -18.50407716897208 -80.32469023323118
rradius 29.774730743082273
rwrist 5.911387163967507
rhand -17.173270197917834 30.95459151883863
rfingers 7.125020000000058
rthumb 9.06865214128038 -6.734666186293396
94
root 0.5968799933014116 17.854141074264056 47.35658629529337 -4.951587596230425 -3.667410990530422 0.3904677771257563
lfemur -8.515839889245678 -3.9481149942102984 -24.408394855306224
ltibia 29.913335996729288
lfoot -13.388868107357673 1.2045581813502606
ltoes 0.9090652393404524
rfemur -22.01967767607236 -3.154449842620273 21.81746067772927
rtibia 84.17875066272414
rfoot -1.4361423538083358 -7.70387409096224
rtoes 11.780142399290838
lowerback 10.691191220143198 0.9360958528359249 -0.6133536255750602
upperback 0.7341358985331876 1.2360940685134314 0.6688908691250391
thorax -5.166404882333473 0.6256200922531512 0.9744143232732294
lowerneck -15.420287622478112 -2.4692165213449604 -2.691316103861565
upperneck 20.18691780555663 -3.026859907802565 1.2855967524734333
head 8.903878242628327 -1.486682588268854 0.49067269263763946
lclavicle -7.639676999364911e-16 -6.5751290850063365e-16
lhumerus -32.67908438974281 8.172627629695581 78.94084972085253
lradius 19.15683711712751
lwrist 4.0172680358183825
lhand -31.151413502369014 17.17630038556039
lfingers 7.125020000000057
lthumb -4.429012340899401 47.13849792664787
rclavicle -7.639676999364911e-16 -6.5751290850063365e-16
rhumerus -28.007038397920656 -18.643968866620845 -80.5504834491131
rradius 29.143921760981485
rwrist 5.2265340142883305
rhand -17.131562792035403 30.81488006619733
rfingers 7.125020000000057
rthumb 9.108838285161708 -6.82073070567761
95
root 0.5775532371542056 17.82589287659093 48.00049862090173 -4.829762949649403 -2.998646593663939 0.76038034538993
lfemur -6.306396856376186 -4.152439600521622 -25.347244118761687
ltibia 28.30453551938347
lfoot -15.412423170780745 1.6727151773149709
ltoes 0.9881179024784421
rfemur -26.30959708648477 -3.674392336227403 21.529479465031564
rtibia 77.90082514218187
rfoot -6.432369837569922 -8.127878985753588
rtoes 8.1245606624861
lowerback 10.74824704271646 0.4381007576916714 -1.315482092099267
upperback 0.7676068856652563 0.48738440290225127 0.738026115830462
thorax -5.192741384528143 0.27767504043033653 1.4816207228812306
lowerneck -15.473264311044595 -2.5088927060121278 -3.006532679805886
upperneck 19.930144739118195 -3.037127729656558 1.4107093599674638
head 8.835748967803877 -1.4943877648549275 0.5871806418978924
lclavicle -1.2243053179041467e-15 -1.0139536604582144e-15
lhumerus -30.79579920341574 5.307503907824712 79.25524770818332
lradius 19.553542642161418
lwrist 4.227636676219479
lhand -30.973507493327382 17.170539040483735
lfingers 7.125020000000056
lthumb -4.257208953975555 47.14079427318517
rclavicle -1.2243053179041467e-15 -1.0139536604582144e-15
rhumerus -29.160285712932875 -18.424701266691464 -80.91825658480063
rradius 28.488709056683682
rwrist 3.938693722355537
rhand -17.13195269734687 30.618802957734296
rfingers 7.125020000000056
rthumb 9.10843910542727 -6.94935724983697
96
root 0.5631365835939411 17.795141418986027 48.685968094260275 -4.4208237775664285 -2.2954430745816 1.2222477871792519
lfemur -3.6832789938574244 -4.090325994238596 -26.177898309387956
ltibia 26.0194712650166
lfoot -16.883308710279596 1.9341832531291336
ltoes 1.1447285709277937
rfemur -29.229590739327605 -3.4598905288937467 21.047588703253695
rtibia 67.7961086698182
rfoot -9.136559890739052 -9.373053289885192
rtoes 4.961897015378263
lowerback 10.695760636071864 0.016483586353345125 -2.0536057066913536
upperback 0.7726422593555378 -0.1619160117551931 0.7949701154031398
thorax -5.15051938716264 -0.02273234796482526 2.028502959509089
lowerneck -15.582887379175393 -2.589588314460496 -3.299769922519692
upperneck 19.589734567361713 -3.11542852856826 1.612085403359342
head 8.751808363156261 -1.5282060888067543 0.6971757804505335
lclavicle -1.420368624352618e-15 -1.165766050456216e-15
lhumerus -28.677254187097788 2.5748818205377324 79.41964112928986
lradius 20.645246791759327
lwrist 4.888249795008479
lhand -30.77312503076252 17.484197791713
lfingers 7.125020000000055
lthumb -4.063697771687541 47.46089235630525
rclavicle -1.420368624352618e-15 -1.165766050456216e-15
rhumerus -30.172324088938883 -17.762444435383284 -81.1818494935429
rradius 28.392819616749378
rwrist 2.753434860415207
rhand -17.11400263921915 30.4263857594438
rfingers 7.125020000000055
rthumb 9.125744576732638 -6.90234288387466
